<svg xmlns="http://www.w3.org/2000/svg" data-svgdocument="" id="_2gErl0NSa4uKuDpLmMOAU" class="fl-svgdocument" x="0" y="0" overflow="hidden" data-bbox="128.98962640416227 193.72951263901706 182.36172494718915 124.54097472196588" viewBox="128.99 220.46 149.02 71.07">
    <defs id="_MPDbylXJrD2Rz3ZoJL4_h" transform="matrix(1.230769395828247, 0, 0, 1.230769395828247, -59.07694625854492, -59.07693099975586)"/>
    <path id="_vOIIoK_OmjZ4NsrBsiKBA" d="M50.657 51.125c4.07 3.04 6.539 10.318 14.021 10.395c7.482 0.078 13.768-5.457 14.906-17.475  c1.14-12.019-7.732-12.096-7.732-12.096L50.657 51.125z" fill="#f2af58" transform="matrix(0.5235716081894819, 0, 0, 0.5235716081894819, 230.42873127735805, 233.286502193883)"/>
    <g id="_60C8CCQs8GVSPcxOFpFeo" transform="matrix(0.40360521240196984, 0, 0, 0.40360521240196984, 142.65011957533955, 152.67707018151555)" fill="#BD1877">
      <path id="_3ZekPx7DmnIc5NE0Me5SK" d="M61.902 50.787c0-15.313-5.863-28.718-14.633-36.103c0.508 0.132 1.081 0.079 1.545-0.306  c0.687-0.571 0.827-2.357 0.051-3.157c-0.382-0.393-0.972-0.791-1.789-1.041c0.206-0.133 0.395-0.272 0.548-0.421  c1.589-1.535 2.165-3.74 1.388-5.027c-1.251-2.07-4.569-1.335-5.166 0.282c-0.963 2.607 1.301 3.332 0.783 4.088  c-0.294 0.43-2.611 0.545-4.47-0.188c-0.624-0.246-1.484-0.959-2.401-1.703C38.203 7.28 38.737 7.241 39.388 7  c1.617-0.597 2.352-3.915 0.282-5.166c-0.875-0.528-2.174-0.418-3.4 0.199c-0.056-0.104-0.119-0.207-0.199-0.303  C35.5 1.043 34.299 0.9 33.326 1.444c-0.683 0.381-1.35 1.642-1.489 3.074c-0.055 0.563-0.062 1.168-0.036 1.733  c-0.009 0.021-0.018 0.042-0.026 0.062c0.019-0.529 0.008-1.085-0.042-1.605c-0.139-1.433-0.806-2.693-1.489-3.075  C29.271 1.09 28.071 1.232 27.5 1.919c-0.081 0.097-0.145 0.199-0.2 0.304c-1.225-0.617-2.524-0.727-3.399-0.199  c-2.07 1.251-1.335 4.569 0.281 5.166c0.396 0.146 0.743 0.211 1.059 0.23c-0.82 0.665-1.578 1.271-2.144 1.494  c-1.859 0.732-4.176 0.617-4.47 0.188c-0.519-0.756 1.746-1.48 0.783-4.088c-0.597-1.617-3.915-2.352-5.166-0.282  c-0.777 1.287-0.202 3.492 1.388 5.027c0.153 0.149 0.342 0.289 0.548 0.421c-0.817 0.25-1.406 0.647-1.788 1.04  c-0.777 0.8-0.637 2.586 0.05 3.158c0.464 0.385 1.037 0.438 1.544 0.305c-8.77 7.385-14.633 20.79-14.633 36.103  c0 20.268 10.272 37.19 23.961 41.235c-0.695 0.033-1.315 0.125-1.757 0.203c-0.715 0.129-2.136-1.406-3.163-0.18  c-0.896 1.068-0.087 2.4 1.288 2.48c1.313 0.08 3.568-1.059 4.584-1.068c1.424-0.012 2.938 0.658 3.024 1.018  c0.151 0.637-1.541 0.539-1.566 2.523c-0.016 1.227 2.006 2.564 3.368 1.508c0.384-0.299 0.623-0.799 0.716-1.385  c0.093 0.586 0.332 1.086 0.715 1.385c1.362 1.057 3.384-0.281 3.368-1.508c-0.025-1.984-1.717-1.887-1.566-2.523  c0.085-0.359 1.6-1.029 3.024-1.018c1.016 0.01 3.271 1.148 4.585 1.068c1.374-0.08 2.182-1.412 1.287-2.48  c-1.027-1.227-2.447 0.309-3.163 0.18c-0.511-0.092-1.262-0.199-2.091-0.209C51.643 87.957 61.902 71.043 61.902 50.787z   M45.175 10.975c1.036-0.055 2.026 0.23 2.088 0.458c0.124 0.448-1.252 0.558-1.266 2.009c-0.001 0.087 0.018 0.175 0.047 0.262  c-1.218-0.92-2.488-1.722-3.8-2.407C43.275 11.331 44.286 11.21 45.175 10.975z M33.313 3.204c0.266-0.074 0.417 0.379 0.796 0.764  c-0.188 0.325-0.351 0.706-0.491 1.116c-0.273 0.021-0.531 0.083-0.765 0.183C32.804 4.241 33.087 3.266 33.313 3.204z   M31.675 7.497c0.022 0.104 0.049 0.21 0.086 0.318c0.108 0.313 0.26 0.544 0.439 0.726c0.01 0.032 0.025 0.073 0.036 0.106  c-0.203-0.006-0.404-0.022-0.609-0.022c-0.076 0-0.151 0.007-0.227 0.008c0.054-0.174 0.101-0.331 0.136-0.451  C31.59 7.996 31.637 7.762 31.675 7.497z M30.257 3.393c0.224 0.062 0.505 1.02 0.463 2.034c-0.243-0.152-0.522-0.259-0.826-0.313  c-0.129-0.347-0.271-0.675-0.434-0.957C29.839 3.772 29.991 3.319 30.257 3.393z M15.991 11.434  c0.063-0.228 1.054-0.513 2.089-0.458c0.89 0.235 1.9 0.355 2.93 0.322c-1.312 0.685-2.582 1.487-3.8 2.407  c0.029-0.087 0.049-0.174 0.048-0.261C17.243 11.991 15.868 11.881 15.991 11.434z M32.16 94.805  c-0.182 0.391-0.295 0.795-0.354 1.191c-0.059-0.396-0.172-0.801-0.355-1.191c-0.325-0.699-1.181-1.457-2.265-2.006  c0.806 0.09 1.618 0.148 2.44 0.148c0.976 0 1.939-0.07 2.892-0.195C33.39 93.303 32.495 94.086 32.16 94.805z M31.627 91.639  c-15.878 0-28.75-18.299-28.75-40.87c0-20.973 11.114-38.247 25.426-40.591c-0.065 0.236-0.131 0.473-0.221 0.7  c-0.165 0.416-0.022 0.667 0.259 0.748c-0.147 0.218-0.27 0.385-0.342 0.47c-0.699 0.816 1.557 0.534 2.339-0.877  c0.237-0.426 0.438-0.873 0.607-1.296c0.227-0.008 0.453-0.024 0.681-0.024c0.364 0 0.725 0.02 1.085 0.039  c0.152 0.362 0.321 0.733 0.52 1.092c0.782 1.412 3.037 1.694 2.338 0.877c-0.072-0.084-0.194-0.251-0.341-0.47  c0.281-0.081 0.423-0.332 0.259-0.748c-0.056-0.143-0.094-0.292-0.141-0.438c14.118 2.595 25.03 19.74 25.03 40.519  C60.377 73.34 47.504 91.639 31.627 91.639z" fill="#BD1877" transform="matrix(1.8009401559829712, 0, 0, 1.8009401559829712, 223.88421630859375, 165.95350646972656)"/>
      <path id="_QiOBYXF1Z6KQd5Na2AUpL" d="M44.534 94.377h-0.004l0.003-3.701h0.001c2.149 0 3.397-2.747 4.067-5.049c2.553-8.788 0.302-20.02-1.19-21.842  c-0.046 0.045-0.1 0.104-0.159 0.176c-4.73 5.69-10.871 9.251-15.266 8.862c-1.899-0.168-3.414-1.089-4.268-2.594  c-1.075-1.893-1.628-4.636-2.162-7.289c-0.376-1.869-1.258-6.244-2.154-6.489c-1.618-0.442-3.364-1.923-4.342-3.683  c-0.715-1.285-0.917-2.557-0.583-3.679c0.372-1.257 1.603-3.508 3.436-6.796c0.82-1.469 1.593-2.857 2.072-3.82  c1.148-2.308 0.896-5.656 0.381-6.637c-1.262-2.403-1.558-13.008 0.836-15.773L28 18.487l-1.398-1.212l1.4 1.211  c-1.076 1.32-1.162 9.975-0.356 11.632c1.124 2.141 1.259 6.778-0.347 10.005c-0.517 1.041-1.312 2.466-2.152 3.972  c-1.196 2.148-2.836 5.088-3.121 6.047c-0.128 0.571 1.243 2.434 2.354 2.737c3.097 0.846 3.928 4.967 4.807 9.328  c0.476 2.367 0.97 4.814 1.751 6.192c0.158 0.276 0.471 0.652 1.375 0.732c2.631 0.243 7.761-2.329 12.092-7.54  c1.875-2.257 3.745-1.671 4.462-1.311c4.632 2.309 5.517 17.078 3.618 25.13C50.736 92.821 47.197 94.377 44.534 94.377" fill="#BD1877" transform="matrix(1.297236680984497, 0, 0, 1.297236680984497, 217.5341033935547, 199.556640625)"/>
      <path id="_Kjc1PPfI_XyLT9_4lJ9ZP" d="M51.186 53.607c0 0.747-0.605 1.354-1.353 1.354c-0.749 0-1.353-0.607-1.353-1.354c0-0.746 0.604-1.353 1.353-1.353  C50.58 52.255 51.186 52.861 51.186 53.607" fill="#BD1877" transform="matrix(1.297236680984497, 0, 0, 1.297236680984497, 217.92593383789062, 199.81094360351562)"/>
      <path id="_MAtWQaXEVTQOsY61m7WaS" d="M78.428 17.275C68.939 3.288 52.925 2.771 40.075 11.068c0 0 0.165 1.213 0.328 2.073c0.084 0.423 0.188 0.939 0.305 1.53  c0.109 0.588 0.281 1.242 0.421 1.955c0.183 0.709 0.359 1.472 0.588 2.268c0.2 0.801 0.478 1.626 0.729 2.485  c0.294 0.848 0.571 1.727 0.914 2.602c0.307 0.885 0.699 1.756 1.047 2.642c0.403 0.865 0.755 1.753 1.181 2.594  c0.21 0.422 0.412 0.844 0.607 1.265c0.194 0.42 0.429 0.813 0.628 1.219c0.204 0.402 0.406 0.799 0.604 1.188  c0.211 0.382 0.417 0.756 0.619 1.119c0.395 0.733 0.757 1.44 1.132 2.07c0.374 0.629 0.684 1.234 0.977 1.761  c0.312 0.51 0.565 0.976 0.778 1.356c0.423 0.764 0.643 1.225 0.643 1.225s-0.4-0.302-1.063-0.875  c-0.331-0.288-0.738-0.634-1.181-1.052c-0.439-0.424-0.916-0.921-1.423-1.478c-0.251-0.279-0.529-0.56-0.791-0.87  c-0.255-0.317-0.519-0.645-0.788-0.982c-0.265-0.343-0.537-0.695-0.816-1.055c-0.254-0.378-0.514-0.763-0.78-1.155  c-0.541-0.78-1.032-1.63-1.509-2.508c-0.505-0.862-0.892-1.81-1.332-2.727c-0.362-0.956-0.77-1.891-1.042-2.862  c-2.464-7.087-2.566-12.592-2.531-13.896c-3.695-0.156-12.026-0.083-12.974 3.674c-3.23 12.811-0.494 33.277 35.422 39.033  l12.85 1.234C73.618 54.9 87.918 31.264 78.428 17.275z" fill="#BD1877" transform="matrix(1.297236680984497, 0, 0, 1.297236680984497, 217.69064331054688, 199.53341674804688)"/>
      <path id="_dPh1QOwGrtOiRrEyOOQRw" d="M38.336 10.662c-0.004 0.026-0.011 0.134-0.015 0.297c1.07 0.045 1.754 0.109 1.754 0.109S38.5 10.079 38.336 10.662z" fill="#BD1877" transform="matrix(1.297236680984497, 0, 0, 1.297236680984497, 217.95721435546875, 199.73570251464844)"/>
    </g>
    <path id="_5jrjnMwRTltcll809L20b" fill="#5d5252" transform="matrix(0.4431955814361572, 0, 0, 0.4431955814361572, 177.864990234375, 272.11834716796875)" text="Alice" text-anchor="middle" font-size="100" letter-spacing="0" side="left" offset="0.5" dx="0" dy="0" space="preserve" href="" font-family="Griffy" font-scale="contain" x="0" y="0" data-fl-textpath="" d="M-49.559921875-73.73L-49.559921875-73.73Q-49.759921875-72.36 -50.049921875-72.36Q-50.339921875-72.36 -50.539921875-72.17L-50.539921875-72.17Q-50.829921875-71.68 -51.219921875-71.44Q-51.609921875-71.19 -51.999921875-70.7L-51.999921875-70.7L-52.979921875-69.92Q-53.659921875-69.34 -54.199921875-68.65Q-54.739921875-67.97 -55.519921875-67.48L-55.519921875-67.48Q-55.709921875-66.99 -55.959921875-66.7Q-56.199921875-66.41 -56.489921875-66.11L-56.489921875-66.11Q-56.399921875-64.94 -56.539921875-64.6Q-56.689921875-64.26 -56.689921875-64.06L-56.689921875-64.06Q-56.689921875-63.67 -56.489921875-62.7L-56.489921875-62.7Q-56.489921875-62.01 -56.349921875-61.38Q-56.199921875-60.74 -56.099921875-59.96L-56.099921875-59.96Q-55.909921875-59.38 -55.859921875-58.74Q-55.809921875-58.11 -55.619921875-57.62L-55.619921875-57.62Q-55.029921875-56.25 -54.929921875-55.81Q-54.829921875-55.37 -54.639921875-54.88L-54.639921875-54.88L-54.249921875-53.61Q-54.249921875-52.83 -54.149921875-52.59Q-54.049921875-52.34 -53.959921875-52.15L-53.959921875-52.15Q-53.759921875-51.37 -53.519921875-50.59Q-53.269921875-49.8 -52.779921875-49.22L-52.779921875-49.22Q-52.589921875-48.34 -52.339921875-47.46Q-52.099921875-46.58 -51.709921875-45.8L-51.709921875-45.8Q-51.609921875-44.53 -51.459921875-43.95Q-51.319921875-43.36 -51.119921875-42.87L-51.119921875-42.87Q-50.929921875-42.29 -50.779921875-41.8Q-50.629921875-41.31 -50.339921875-40.82L-50.339921875-40.82Q-50.049921875-39.75 -49.559921875-38.77L-49.559921875-38.77Q-49.369921875-38.09 -49.169921875-37.84Q-48.969921875-37.6 -48.879921875-37.3L-48.879921875-37.3L-48.389921875-35.84Q-48.189921875-35.25 -47.999921875-34.72Q-47.799921875-34.18 -47.609921875-33.59L-47.609921875-33.59Q-47.019921875-32.71 -46.969921875-32.32Q-46.919921875-31.93 -46.729921875-31.64L-46.729921875-31.64Q-46.529921875-30.96 -46.239921875-30.47Q-45.949921875-29.98 -45.649921875-29.2L-45.649921875-29.2Q-45.359921875-28.32 -45.069921875-27.44Q-44.779921875-26.56 -44.379921875-25.68L-44.379921875-25.68Q-43.989921875-24.9 -43.699921875-24.22L-43.699921875-24.22Q-43.509921875-23.93 -43.509921875-23.58Q-43.509921875-23.24 -43.309921875-23.05L-43.309921875-23.05Q-42.919921875-21.97 -42.679921875-21.44Q-42.429921875-20.9 -42.239921875-20.31L-42.239921875-20.31Q-41.849921875-19.43 -41.749921875-18.9Q-41.649921875-18.36 -41.459921875-17.97L-41.459921875-17.97Q-41.159921874999995-17.48 -40.969921875-16.99L-40.969921875-16.99L-40.479921875-16.02Q-39.98992187499999-15.23 -39.98992187499999-14.89Q-39.98992187499999-14.55 -39.789921875000005-14.16L-39.789921875000005-14.16Q-39.309921875-13.48 -39.309921875-13.18Q-39.309921875-12.89 -39.209921875000006-12.6L-39.209921875000006-12.6Q-39.009921875-12.21 -38.819921875000006-11.91Q-38.619921875-11.62 -38.429921875000005-11.23L-38.429921875000005-11.23Q-37.839921875-10.06 -37.549921874999995-9.67Q-37.259921875-9.28 -37.059921875-8.89L-37.059921875-8.89Q-36.179921875000005-7.52 -35.59992187500001-7.03L-35.59992187500001-7.03Q-34.809921875-6.64 -34.419921875-6.2Q-34.029921875-5.76 -33.539921875000005-5.47L-33.539921875000005-5.47Q-32.759921875-4.98 -32.569921875000006-4.69L-32.569921875000006-4.69Q-31.299921874999995-4 -30.909921874999995-3.81L-30.909921874999995-3.81Q-30.219921874999997-3.13 -30.029921875-3.13Q-29.829921874999997-3.13 -29.639921875-3.03L-29.639921875-3.03Q-29.149921875000004-2.83 -28.519921874999994-2.59Q-27.879921874999994-2.34 -27.389921875-2.15L-27.389921875-2.15Q-26.899921875000004-1.95 -26.559921875-1.86Q-26.219921874999997-1.76 -25.729921875000002-1.66L-25.729921875000002-1.66Q-25.339921875-1.56 -24.899921875000004-1.61Q-24.459921875000006-1.66 -24.069921875000006-1.27L-24.069921875000006-1.27Q-24.949921875-0.78 -24.949921875-0.68Q-24.949921875-0.59 -25.149921875000004-0.59L-25.149921875000004-0.59Q-25.439921874999996-0.59 -25.829921874999997-0.68Q-26.219921874999997-0.78 -26.709921875000006-0.78L-26.709921875000006-0.78Q-27.589921875-0.88 -28.609921874999998-0.68Q-29.639921875-0.49 -30.709921875000006-0.39L-30.709921875000006-0.39Q-31.399921875000004-0.29 -32.129921874999994-0.29Q-32.859921875-0.29 -33.639921875-0.2L-33.639921875-0.2Q-35.109921875-0.2 -35.73992187499999-0.1Q-36.379921874999994 0 -37.159921874999995 0L-37.159921874999995 0Q-37.549921874999995 0 -37.789921875000005 0.1Q-38.039921875000005 0.2 -38.229921875 0.29L-38.229921875 0.29Q-39.309921875 0.39 -40.379921874999994 0.34Q-41.459921875 0.29 -42.429921875 0.39L-42.429921875 0.39Q-43.019921875 0.39 -43.599921875 0.49Q-44.189921875 0.59 -44.779921875 0.59L-44.779921875 0.59Q-46.139921875 0.68 -47.409921875 0.73Q-48.679921875 0.78 -49.949921875 0.88L-49.949921875 0.88Q-50.539921875 0.88 -51.119921875 0.83Q-51.709921875 0.78 -52.289921875 0.88L-52.289921875 0.88Q-53.269921875 0.98 -54.149921875 1.12Q-55.029921875 1.27 -55.909921875 1.17L-55.909921875 1.17Q-56.399921875 1.17 -56.739921875 1.07Q-57.079921875 0.98 -57.569921875 0.98L-57.569921875 0.98Q-57.859921875 0.98 -58.149921875 1.03Q-58.449921875 1.07 -58.739921875 1.07L-58.739921875 1.07Q-60.109921875 0.98 -61.039921875 1.12Q-61.959921875 1.27 -62.739921875 1.17L-62.739921875 1.17Q-64.20992187499999 1.17 -65.18992187500001 0.59L-65.18992187500001 0.59Q-64.699921875-0.59 -64.39992187499999-0.68Q-64.109921875-0.78 -63.719921875-0.98L-63.719921875-0.98Q-63.039921875-1.27 -62.299921875-1.56Q-61.569921875-1.86 -60.789921875-2.25L-60.789921875-2.25Q-60.299921875-2.34 -59.329921875-2.73L-59.329921875-2.73Q-58.149921875-3.42 -57.369921875-3.61L-57.369921875-3.61Q-56.879921875-3.81 -56.449921875-4.1Q-56.009921875-4.39 -55.519921875-4.59L-55.519921875-4.59Q-55.219921875-4.79 -54.929921875-4.79Q-54.639921875-4.79 -54.439921875-4.98L-54.439921875-4.98Q-53.369921875-5.66 -53.219921875-5.62Q-53.079921875-5.57 -52.879921875-5.66L-52.879921875-5.66Q-52.199921875-6.05 -52.049921875-6.3Q-51.899921875-6.54 -51.709921875-6.74L-51.709921875-6.74Q-51.219921875-6.74 -50.979921875-6.98Q-50.729921875-7.23 -50.539921875-7.42L-50.539921875-7.42Q-49.759921875-8.01 -49.459921875-8.3L-49.459921875-8.3Q-49.369921875-8.89 -49.169921875-9.52Q-48.969921875-10.16 -49.069921875-10.94L-49.069921875-10.94Q-49.659921875-11.91 -49.609921875-12.01Q-49.559921875-12.11 -49.659921875-12.3L-49.659921875-12.3Q-50.049921875-12.99 -50.049921875-13.43Q-50.049921875-13.87 -50.149921875-14.36L-50.149921875-14.36Q-50.439921875-15.53 -50.439921875-15.77Q-50.439921875-16.02 -50.539921875-16.21L-50.539921875-16.21Q-50.729921875-16.7 -50.979921875-17.24Q-51.219921875-17.77 -51.419921875-18.26L-51.419921875-18.26Q-51.709921875-19.43 -51.859921875-19.87Q-51.999921875-20.31 -52.199921875-20.8L-52.199921875-20.8Q-52.879921875-21.48 -53.519921875-21.58Q-54.149921875-21.68 -54.829921875-21.88L-54.829921875-21.88Q-56.009921875-22.17 -56.489921875-22.17Q-56.979921875-22.17 -57.569921875-22.17L-57.569921875-22.17Q-58.249921875-22.27 -58.889921875-22.41Q-59.519921875-22.56 -60.209921875-22.56L-60.209921875-22.56Q-60.399921875-22.56 -60.789921875-22.51Q-61.179921875-22.46 -61.569921875-22.46L-61.569921875-22.46Q-63.229921875-22.36 -64.64992187499999-22.31Q-66.059921875-22.27 -68.019921875-22.27L-68.019921875-22.27L-69.089921875-22.27Q-69.67992187499999-22.36 -70.359921875-22.27L-70.359921875-22.27Q-71.43992187500001-22.17 -71.729921875-22.27Q-72.019921875-22.36 -72.309921875-22.46L-72.309921875-22.46Q-73.969921875-22.66 -75.539921875-22.46L-75.539921875-22.46L-76.70992187499999-22.17Q-77.489921875-22.07 -78.219921875-22.07Q-78.95992187499999-22.07 -79.639921875-22.07L-79.639921875-22.07Q-80.419921875-22.07 -81.009921875-22.17Q-81.589921875-22.27 -82.279921875-22.17L-82.279921875-22.17Q-83.059921875-22.07 -83.839921875-21.92Q-84.619921875-21.78 -85.20992187499999-21.68L-85.20992187499999-21.68Q-85.399921875-20.8 -85.739921875-19.78Q-86.079921875-18.75 -86.179921875-17.58L-86.179921875-17.58Q-86.179921875-17.29 -86.12992187500001-16.99Q-86.079921875-16.7 -86.079921875-16.31L-86.079921875-16.31Q-86.079921875-15.82 -86.229921875-15.48Q-86.37992187500001-15.14 -86.179921875-14.65L-86.179921875-14.65Q-86.079921875-13.77 -85.689921875-12.89L-85.689921875-12.89Q-85.989921875-11.62 -85.939921875-11.13Q-85.889921875-10.64 -85.889921875-10.16L-85.889921875-10.16Q-85.989921875-9.38 -86.039921875-8.54Q-86.079921875-7.71 -85.689921875-7.03L-85.689921875-7.03Q-85.499921875-6.64 -85.109921875-6.1Q-84.719921875-5.57 -84.229921875-5.18L-84.229921875-5.18Q-83.739921875-4.79 -82.95992187499999-4.49Q-82.179921875-4.2 -81.589921875-3.81L-81.589921875-3.81Q-80.909921875-3.22 -80.659921875-3.17Q-80.419921875-3.13 -80.12992187500001-2.93L-80.12992187500001-2.93Q-79.439921875-2.64 -78.559921875-2.15Q-77.689921875-1.66 -76.999921875-1.17L-76.999921875-1.17Q-76.70992187499999-0.98 -76.319921875-0.93Q-75.929921875-0.88 -76.029921875-0.39L-76.029921875-0.39Q-76.999921875 0.2 -77.339921875 0.1Q-77.689921875 0 -78.079921875 0L-78.079921875 0Q-78.559921875 0.1 -78.999921875 0.1Q-79.439921875 0.1 -79.929921875 0.29L-79.929921875 0.29Q-80.319921875 0.29 -80.659921875 0.44Q-81.009921875 0.59 -81.489921875 0.59L-81.489921875 0.59Q-83.839921875 0.49 -85.599921875 0.63Q-87.349921875 0.78 -89.009921875 0.88L-89.009921875 0.88Q-89.989921875 0.88 -90.969921875 0.78Q-91.939921875 0.68 -92.919921875 0.59L-92.919921875 0.59Q-93.989921875 0.49 -94.969921875 0.63Q-95.949921875 0.78 -96.919921875 0.68L-96.919921875 0.68Q-97.309921875 0.68 -97.659921875 0.59Q-97.999921875 0.49 -98.489921875 0.49L-98.489921875 0.49Q-98.879921875 0.49 -99.219921875 0.59Q-99.559921875 0.68 -99.949921875 0.68L-99.949921875 0.68Q-101.029921875 0.68 -101.029921875 0.63Q-101.029921875 0.59 -101.119921875 0.59L-101.119921875 0.59Q-101.609921875 0.68 -102.049921875 0.78Q-102.489921875 0.88 -102.979921875 0.88L-102.979921875 0.88Q-103.759921875 0.88 -104.389921875 0.73Q-105.029921875 0.59-105.619921875 0.59L-105.619921875 0.59Q-106.099921875 0.59-106.589921875 0.63Q-107.079921875 0.68-107.569921875 0.68L-107.569921875 0.68Q-107.859921875 0.78-108.399921875 0.88Q-108.939921875 0.98-109.419921875 0.98L-109.419921875 0.98Q-110.599921875 0.1-110.159921875 0.05Q-109.719921875 0-109.519921875-0.2L-109.519921875-0.2Q-108.349921875-0.98-108.249921875-1.07L-108.249921875-1.07Q-107.179921875-1.76-107.079921875-1.86L-107.079921875-1.86Q-106.199921875-2.73-105.469921875-3.03Q-104.739921875-3.32 -104.249921875-3.52L-104.249921875-3.52Q-103.169921875-4.1 -102.879921875-4.25Q-102.589921875-4.39 -102.199921875-4.59L-102.199921875-4.59Q-101.899921875-4.79 -101.559921875-4.88Q-101.219921875-4.98 -100.929921875-5.18L-100.929921875-5.18Q-100.339921875-5.57 -99.949921875-6.05Q-99.559921875-6.54 -98.879921875-6.93L-98.879921875-6.93Q-98.679921875-7.71 -98.289921875-8.2Q-97.899921875-8.69 -97.509921875-9.18L-97.509921875-9.18Q-97.019921875-9.96 -97.069921875-10.01Q-97.119921875-10.06 -97.019921875-10.16L-97.019921875-10.16Q-96.829921875-10.35 -96.579921875-10.84Q-96.339921875-11.33 -96.439921875-11.82L-96.439921875-11.82Q-95.559921875-13.09 -95.169921875-13.82Q-94.779921875-14.55 -94.579921875-15.33L-94.579921875-15.33Q-94.37992187500001-16.5 -94.289921875-16.6Q-94.189921875-16.7 -94.089921875-16.89L-94.089921875-16.89Q-93.699921875-17.87 -93.409921875-19.09Q-93.119921875-20.31 -92.62992187500001-21.39L-92.62992187500001-21.39Q-92.429921875-21.88 -92.289921875-22.36Q-92.139921875-22.85 -91.939921875-23.63L-91.939921875-23.63Q-91.649921875-24.8 -91.45992187499999-25.05Q-91.259921875-25.29 -91.159921875-25.68L-91.159921875-25.68Q-90.969921875-26.07 -91.059921875-26.42Q-91.159921875-26.76 -90.969921875-27.15L-90.969921875-27.15L-90.279921875-28.32Q-90.089921875-28.61 -89.939921875-28.86Q-89.789921875-29.1 -89.599921875-29.39L-89.599921875-29.39Q-89.399921875-29.88 -89.309921875-30.27Q-89.20992187499999-30.66 -89.009921875-31.15L-89.009921875-31.15Q-88.329921875-32.32 -88.229921875-32.71Q-88.12992187500001-33.11 -87.939921875-33.59L-87.939921875-33.59Q-87.739921875-34.08 -87.549921875-34.67Q-87.349921875-35.25 -87.449921875-36.04L-87.449921875-36.04Q-86.95992187499999-36.52 -86.719921875-37.4Q-86.469921875-38.28 -86.079921875-39.06L-86.079921875-39.06Q-85.889921875-39.36 -85.739921875-39.5Q-85.599921875-39.65 -85.599921875-40.14L-85.599921875-40.14Q-85.499921875-40.63 -85.599921875-41.02Q-85.689921875-41.41 -85.889921875-41.89L-85.889921875-41.89Q-85.689921875-42.38 -85.549921875-42.77Q-85.399921875-43.16 -85.299921875-43.65L-85.299921875-43.65Q-84.909921875-44.34 -84.769921875-44.63Q-84.619921875-44.92 -84.419921875-45.21L-84.419921875-45.21Q-84.12992187500001-45.9 -83.639921875-46.78L-83.639921875-46.78Q-83.449921875-47.17 -83.299921875-47.61Q-83.149921875-48.05 -82.95992187499999-48.54L-82.95992187499999-48.54Q-82.369921875-49.51 -82.369921875-49.76Q-82.369921875-50 -82.279921875-50.2L-82.279921875-50.2Q-81.87992187500001-50.98 -81.489921875-51.76Q-81.099921875-52.54 -80.70992187499999-53.32L-80.70992187499999-53.32Q-80.519921875-53.81 -80.419921875-54.2Q-80.319921875-54.59 -80.12992187500001-54.98L-80.12992187500001-54.98Q-79.929921875-55.47 -79.739921875-55.81Q-79.539921875-56.15 -79.439921875-56.64L-79.439921875-56.64Q-79.249921875-57.03 -79.299921875-57.37Q-79.349921875-57.71 -79.149921875-58.11L-79.149921875-58.11Q-79.149921875-58.3 -79.049921875-58.59Q-78.95992187499999-58.89 -78.859921875-59.18L-78.859921875-59.18Q-77.779921875-61.13 -77.339921875-61.96Q-76.899921875-62.79 -76.319921875-63.96L-76.319921875-63.96Q-76.119921875-64.55 -75.87992187500001-65.19Q-75.62992187500001-65.82 -75.729921875-66.21L-75.729921875-66.21Q-75.929921875-66.7 -76.559921875-66.85Q-77.199921875-66.99 -77.589921875-67.29L-77.589921875-67.29Q-78.659921875-67.09 -79.689921875-67.33Q-80.70992187499999-67.58 -81.689921875-67.87L-81.689921875-67.87Q-82.759921875-68.16 -84.229921875-68.16Q-85.689921875-68.16 -87.349921875-68.26L-87.349921875-68.26Q-88.12992187500001-68.26 -89.009921875-68.31Q-89.889921875-68.36 -90.669921875-68.26L-90.669921875-68.26Q-91.649921875-68.07 -92.529921875-67.72Q-93.409921875-67.38 -94.189921875-67.19L-94.189921875-67.19Q-95.849921875-66.7 -97.509921875-66.02L-97.509921875-66.02Q-98.489921875-65.33 -98.489921875-65.23Q-98.489921875-65.14 -98.679921875-65.04L-98.679921875-65.04Q-99.559921875-64.26 -99.759921875-63.92Q-99.949921875-63.57 -100.239921875-63.38L-100.239921875-63.38Q-100.629921875-62.3 -100.629921875-61.43Q-100.629921875-60.55 -100.539921875-59.28L-100.539921875-59.28Q-100.539921875-58.89 -100.589921875-58.5Q-100.629921875-58.11 -100.539921875-57.71L-100.539921875-57.71Q-100.539921875-57.32 -100.239921875-56.64Q-99.949921875-55.96 -99.759921875-55.47L-99.759921875-55.47Q-99.559921875-55.18 -98.879921875-54.69L-98.879921875-54.69Q-98.489921875-53.81 -98.189921875-53.52Q-97.899921875-53.22 -97.609921875-52.83L-97.609921875-52.83Q-97.119921875-52.34 -96.969921875-52.05Q-96.829921875-51.76 -96.239921875-51.37L-96.239921875-51.37Q-94.869921875-50.98 -94.579921875-51.07Q-94.289921875-51.17 -93.799921875-51.37L-93.799921875-51.37Q-93.019921875-51.56 -92.529921875-51.76Q-92.039921875-51.95 -91.359921875-52.54L-91.359921875-52.54Q-91.159921875-52.73 -90.819921875-52.93Q-90.479921875-53.13 -90.279921875-53.32L-90.279921875-53.32Q-90.089921875-53.52 -90.039921875-53.81Q-89.989921875-54.1 -89.789921875-54.3L-89.789921875-54.3Q-89.309921875-55.86 -89.939921875-56.54Q-90.579921875-57.23 -91.159921875-57.71L-91.159921875-57.71Q-92.239921875-58.4 -92.579921875-58.25Q-92.919921875-58.11 -93.20992187499999-57.91L-93.20992187499999-57.91Q-93.599921875-57.81 -93.849921875-57.67Q-94.089921875-57.52 -94.289921875-57.32L-94.289921875-57.32L-95.559921875-56.74Q-96.439921875-56.93 -96.829921875-56.74L-96.829921875-56.74Q-96.729921875-57.62 -96.239921875-58.69L-96.239921875-58.69Q-95.559921875-59.57 -95.45992187499999-59.57L-95.45992187499999-59.57Q-94.679921875-60.16 -94.339921875-60.25Q-93.989921875-60.35 -93.699921875-60.55L-93.699921875-60.55Q-93.409921875-60.74 -93.20992187499999-60.79Q-93.019921875-60.84 -92.529921875-61.04L-92.529921875-61.04Q-92.139921875-61.13 -91.849921875-61.23Q-91.549921875-61.33 -91.159921875-61.23L-91.159921875-61.23Q-90.089921875-61.13 -89.359921875-60.3Q-88.619921875-59.47 -87.839921875-58.98L-87.839921875-58.98Q-87.449921875-58.2 -86.869921875-57.52Q-86.279921875-56.84 -86.279921875-55.86L-86.279921875-55.86Q-86.569921875-54.2 -86.769921875-53.91L-86.769921875-53.91Q-86.95992187499999-53.61 -87.299921875-53.37Q-87.649921875-53.13 -88.12992187500001-52.64L-88.12992187500001-52.64Q-88.529921875-52.34 -88.869921875-51.95Q-89.20992187499999-51.56 -89.599921875-51.27L-89.599921875-51.27Q-90.669921875-50.39 -90.579921875-50.39L-90.579921875-50.39Q-91.45992187499999-49.9 -91.649921875-49.76Q-91.849921875-49.61 -92.039921875-49.41L-92.039921875-49.41Q-92.919921875-48.73 -93.159921875-48.73Q-93.409921875-48.73 -93.599921875-48.63L-93.599921875-48.63Q-94.089921875-48.24 -94.37992187500001-48.24Q-94.679921875-48.24 -95.169921875-48.14L-95.169921875-48.14Q-95.559921875-48.05 -95.749921875-47.95Q-95.949921875-47.85 -96.439921875-48.05L-96.439921875-48.05Q-97.119921875-48.14 -97.609921875-48.54Q-98.099921875-48.93 -98.579921875-49.12L-98.579921875-49.12Q-99.069921875-49.61 -99.509921875-49.8Q-99.949921875-50 -100.239921875-50.29L-100.239921875-50.29Q-100.829921875-50.98 -101.459921875-51.66Q-102.099921875-52.34 -102.589921875-53.13L-102.589921875-53.13Q-102.879921875-53.81 -103.219921875-54.49Q-103.559921875-55.18 -103.759921875-55.86L-103.759921875-55.86Q-103.959921875-56.64 -104.049921875-57.57Q-104.149921875-58.5 -104.249921875-59.57L-104.249921875-59.57Q-104.349921875-60.64 -104.389921875-61.47Q-104.439921875-62.3 -104.249921875-63.18L-104.249921875-63.18Q-104.149921875-63.57 -103.999921875-63.96Q-103.859921875-64.36 -103.759921875-64.84L-103.759921875-64.84Q-103.659921875-65.23 -103.709921875-65.63Q-103.759921875-66.02 -103.659921875-66.31L-103.659921875-66.31Q-103.369921875-66.8 -102.729921875-67.33Q-102.099921875-67.87 -101.609921875-68.36L-101.609921875-68.36Q-101.419921875-68.55 -101.319921875-68.8Q-101.219921875-69.04 -100.929921875-69.24L-100.929921875-69.24Q-100.239921875-69.82 -99.709921875-69.97Q-99.169921875-70.12 -98.679921875-70.31L-98.679921875-70.31Q-98.189921875-70.51 -97.849921875-70.75Q-97.509921875-71 -97.019921875-71.19L-97.019921875-71.19Q-95.559921875-71.39 -94.819921875-71.58Q-94.089921875-71.78 -93.509921875-71.88L-93.509921875-71.88Q-93.019921875-71.97 -92.479921875-71.92Q-91.939921875-71.88 -91.45992187499999-71.88L-91.45992187499999-71.88Q-91.159921875-71.88 -90.819921875-71.97Q-90.479921875-72.07 -90.089921875-72.17L-90.089921875-72.17Q-88.619921875-72.27 -86.95992187499999-72.22Q-85.299921875-72.17 -84.029921875-72.17L-84.029921875-72.17Q-83.249921875-72.17 -82.519921875-72.22Q-81.789921875-72.27 -81.009921875-72.27L-81.009921875-72.27Q-80.12992187500001-72.27 -79.249921875-72.12Q-78.369921875-71.97 -77.199921875-71.97L-77.199921875-71.97Q-76.809921875-72.07 -76.509921875-72.02Q-76.219921875-71.97 -75.929921875-71.97L-75.929921875-71.97Q-75.149921875-71.97 -74.319921875-71.92Q-73.489921875-71.88 -72.70992187499999-71.88L-72.70992187499999-71.88Q-71.43992187500001-71.88 -69.919921875-71.92Q-68.40992187500001-71.97 -67.039921875-71.78L-67.039921875-71.78Q-66.749921875-71.68 -66.20992187499999-71.73Q-65.669921875-71.78 -65.279921875-71.78L-65.279921875-71.78L-63.329921875-71.78Q-62.059921875-71.88 -61.669921875-71.97Q-61.279921875-72.07 -60.889921875-72.17L-60.889921875-72.17Q-60.399921875-72.27 -59.909921875-72.22Q-59.419921875-72.17 -58.939921875-72.27L-58.939921875-72.27Q-57.759921875-72.46 -56.689921875-72.71Q-55.619921875-72.95 -54.539921875-73.34L-54.539921875-73.34Q-54.149921875-73.44 -53.759921875-73.49Q-53.369921875-73.54 -52.879921875-73.63L-52.879921875-73.63Q-52.289921875-73.73 -51.419921875-73.63L-51.419921875-73.63Q-51.119921875-74.02 -50.539921875-73.93Q-49.949921875-73.83 -49.559921875-73.73ZM-62.159921875-49.32L-62.159921875-49.32L-63.039921875-51.37Q-63.329921875-52.15 -63.619921875-52.93Q-63.919921875-53.71 -64.20992187499999-54.49L-64.20992187499999-54.49Q-64.309921875-54.79 -64.39992187499999-55.08Q-64.499921875-55.37 -64.599921875-55.57L-64.599921875-55.57Q-64.789921875-56.25 -64.889921875-56.84Q-64.989921875-57.42 -65.18992187500001-57.91L-65.18992187500001-57.91Q-65.279921875-58.3 -65.669921875-58.89L-65.669921875-58.89Q-66.059921875-60.16 -66.45992187499999-60.94L-66.45992187499999-60.94Q-66.93992187500001-62.21 -66.93992187500001-62.21L-66.93992187500001-62.21Q-67.62992187500001-63.09 -68.309921875-63.28L-68.309921875-63.28Q-69.18992187500001-62.89 -69.339921875-62.7Q-69.479921875-62.5 -69.479921875-62.4L-69.479921875-62.4Q-69.67992187499999-62.21 -69.919921875-61.96Q-70.169921875-61.72 -70.359921875-61.52L-70.359921875-61.52Q-70.559921875-61.23 -70.609921875-60.89Q-70.64992187499999-60.55 -70.849921875-60.06L-70.849921875-60.06Q-71.239921875-59.77 -71.62992187500001-59.28Q-72.019921875-58.79 -72.219921875-58.4L-72.219921875-58.4L-73.18992187500001-57.32Q-73.87992187500001-55.47 -73.969921875-55.18L-73.969921875-55.18Q-74.659921875-53.91 -74.849921875-53.17Q-75.049921875-52.44 -75.339921875-51.76L-75.339921875-51.76Q-75.439921875-50.98 -75.589921875-50.88Q-75.729921875-50.78 -75.729921875-50.68L-75.729921875-50.68Q-75.929921875-50.39 -75.979921875-50.05Q-76.029921875-49.71 -76.119921875-49.41L-76.119921875-49.41Q-76.219921875-49.12 -76.219921875-48.78Q-76.219921875-48.44 -76.319921875-48.14L-76.319921875-48.14Q-76.999921875-47.07 -77.149921875-46.34Q-77.289921875-45.61 -77.589921875-45.21L-77.589921875-45.21Q-77.779921875-44.92 -77.929921875-44.53Q-78.079921875-44.14 -78.169921875-43.95L-78.169921875-43.95Q-78.95992187499999-41.7 -79.539921875-39.79Q-80.12992187500001-37.89 -80.809921875-36.33L-80.809921875-36.33Q-81.009921875-35.84 -81.299921875-35.35Q-81.589921875-34.86 -81.789921875-34.38L-81.789921875-34.38Q-81.979921875-33.89 -81.979921875-33.5Q-81.979921875-33.11 -82.179921875-32.71L-82.179921875-32.71Q-82.279921875-32.32 -82.469921875-31.98Q-82.669921875-31.64 -82.859921875-31.15L-82.859921875-31.15Q-83.149921875-30.37 -83.249921875-29.44Q-83.349921875-28.52 -83.449921875-27.64L-83.449921875-27.64Q-82.369921875-27.25 -81.199921875-27.39Q-80.029921875-27.54 -78.859921875-27.34L-78.859921875-27.34Q-78.079921875-27.25 -77.389921875-27Q-76.70992187499999-26.76 -76.029921875-26.66L-76.029921875-26.66Q-75.339921875-26.56 -74.509921875-26.66Q-73.679921875-26.76 -72.799921875-26.66L-72.799921875-26.66Q-72.119921875-26.66 -71.43992187500001-26.56Q-70.749921875-26.46 -70.069921875-26.46L-70.069921875-26.46Q-69.37992187500001-26.46 -68.849921875-26.56Q-68.309921875-26.66 -67.62992187500001-26.66L-67.62992187500001-26.66Q-67.139921875-26.66 -66.64992187499999-26.61Q-66.15992187500001-26.56 -65.669921875-26.56L-65.669921875-26.56Q-64.499921875-26.56 -63.329921875-26.61Q-62.159921875-26.66 -60.889921875-26.76L-60.889921875-26.76Q-59.519921875-26.95 -58.009921875-27.2Q-56.489921875-27.44 -55.709921875-27.93L-55.709921875-27.93Q-55.519921875-29.98 -56.099921875-31.64Q-56.689921875-33.3 -57.179921875-35.06L-57.179921875-35.06Q-57.179921875-35.25 -57.179921875-35.6Q-57.179921875-35.94 -57.279921875-36.13L-57.279921875-36.13Q-57.859921875-37.3 -57.909921875-37.79Q-57.959921875-38.28 -58.059921875-38.77L-58.059921875-38.77Q-58.149921875-38.96 -58.299921875-39.5Q-58.449921875-40.04 -58.449921875-40.23L-58.449921875-40.23Q-58.349921875-41.02 -58.499921875-41.41Q-58.639921875-41.8 -58.739921875-42.29L-58.739921875-42.29Q-58.939921875-43.07 -58.979921875-43.85Q-59.029921875-44.63 -59.329921875-45.12L-59.329921875-45.12L-60.209921875-46Q-60.499921875-46.39 -60.739921875-46.73Q-60.989921875-47.07 -61.279921875-47.36L-61.279921875-47.36Q-61.279921875-47.95 -61.619921875-48.39Q-61.959921875-48.83 -62.159921875-49.32ZM-16.450078124999997-63.77L-16.450078124999997-63.77Q-16.260078125-62.79 -16.450078124999997-61.87Q-16.650078125-60.94 -16.750078125-59.86L-16.750078125-59.86Q-17.040078125-57.62 -17.040078125-55.47L-17.040078125-55.47Q-17.040078125-53.81 -16.990078125-52.29Q-16.940078125-50.78 -17.040078125-49.12L-17.040078125-49.12L-17.040078125-46.78Q-16.940078125-46.19 -16.850078125-45.61Q-16.750078125-45.02 -16.750078125-44.53L-16.750078125-44.53Q-16.750078125-44.04 -16.850078125-43.6Q-16.940078125-43.16 -17.040078125-42.77L-17.040078125-42.77Q-17.040078125-41.99 -17.040078125-41.26Q-17.040078125-40.53 -17.140078125000002-39.75L-17.140078125000002-39.75Q-17.240078125-38.96 -17.290078125-38.28Q-17.330078125-37.6 -17.330078125-36.91L-17.330078125-36.91Q-17.330078125-36.33 -17.290078125-35.74Q-17.240078125-35.16 -17.240078125-34.57L-17.240078125-34.57Q-17.240078125-34.18 -17.330078125-33.89Q-17.430078125-33.59 -17.630078125-33.2L-17.630078125-33.2Q-17.630078125-32.71 -17.530078125-32.32Q-17.430078125-31.93 -17.630078125-31.54L-17.630078125-31.54Q-17.720078125-30.47 -17.870078125-29.59Q-18.020078124999998-28.71 -18.020078124999998-27.44L-18.020078124999998-27.44Q-18.120078125-26.07 -18.160078125-25.63Q-18.210078125000003-25.2 -18.310078125-24.71L-18.310078125-24.71Q-18.210078125000003-23.05 -18.310078125-22.66L-18.310078125-22.66Q-18.600078125-21.39 -18.600078125-21.09L-18.600078125-21.09Q-18.800078125-20.12 -18.850078125-19.09Q-18.900078125-18.07 -18.990078125-16.99L-18.990078125-16.99Q-19.090078124999998-16.5 -19.090078124999998-16.11Q-19.090078124999998-15.72 -19.090078124999998-15.23L-19.090078124999998-15.23Q-18.990078125-14.16 -19.040078125-13.38Q-19.090078124999998-12.6 -18.990078125-11.91L-18.990078125-11.91Q-18.990078125-11.62 -18.900078125-11.33Q-18.800078125-11.04 -18.800078125-10.74L-18.800078125-10.74Q-18.700078124999997-9.96 -18.700078124999997-9.28Q-18.700078124999997-8.59 -18.510078125-8.11L-18.510078125-8.11Q-18.310078125-7.52 -17.630078125-7.08Q-16.940078125-6.64 -16.260078125-6.15L-16.260078125-6.15Q-15.770078125000001-5.76 -15.190078125-5.32Q-14.600078125-4.88 -14.010078125-4.39L-14.010078125-4.39Q-13.230078124999999-3.71 -13.130078125-3.71Q-13.040078125-3.71 -13.040078125-3.61L-13.040078125-3.61Q-12.940078125-2.73 -13.230078124999999-2.59Q-13.530078125-2.44 -13.720078125-2.25L-13.720078125-2.25Q-15.380078125-1.86 -16.450078124999997-2.15L-16.450078124999997-2.15Q-17.720078125-2.25 -18.020078124999998-2.1Q-18.310078125-1.95 -18.510078125-1.86L-18.510078125-1.86Q-18.900078125-1.86 -19.190078125-1.9Q-19.480078125-1.95 -19.870078125-1.86L-19.870078125-1.86Q-20.360078125-1.86 -20.900078125-1.76Q-21.440078125-1.66 -21.920078125-1.66L-21.920078125-1.66L-23.970078125-1.66Q-24.370078125-1.66 -24.710078125-1.61Q-25.050078125-1.56 -25.540078125-1.56L-25.540078125-1.56Q-26.120078125-1.46 -26.370078125-1.37Q-26.610078125-1.27 -26.810078125-1.17L-26.810078125-1.17Q-27.100078125-1.07 -27.390078125-1.12Q-27.690078125-1.17 -27.980078125-1.17L-27.980078125-1.17Q-28.950078125-1.17 -29.440078125-1.86L-29.440078125-1.86Q-29.350078125-2.44 -28.950078125-2.73Q-28.560078125-3.03 -28.080078125-3.32L-28.080078125-3.32Q-27.200078125-3.81 -27.150078125-3.96Q-27.100078125-4.1 -27.000078125-4.1L-27.000078125-4.1Q-26.030078125-4.69 -26.030078125-4.64Q-26.030078125-4.59 -25.930078125-4.69L-25.930078125-4.69Q-25.730078125-4.79 -25.440078125-4.88Q-25.150078125-4.98 -24.950078125-5.18L-24.950078125-5.18Q-24.070078125000002-5.96 -23.830078125-6.2Q-23.580078125-6.45 -23.390078125000002-7.32L-23.390078125000002-7.32Q-23.290078125-7.71 -23.190078125-8.15Q-23.100078125-8.59 -23.000078125-9.08L-23.000078125-9.08L-23.000078125-10.64L-23.000078125-11.91Q-23.190078125-14.16 -23.440078125-16.5Q-23.680078125-18.85 -23.880078125-21.29L-23.880078125-21.29Q-23.880078125-21.78 -23.970078125-22.22Q-24.070078125000002-22.66 -24.070078125000002-23.24L-24.070078125000002-23.24Q-23.970078125-23.93 -24.070078125000002-24.32Q-24.170078125-24.71 -24.170078125-25L-24.170078125-25Q-24.070078125000002-26.37 -24.170078125-27.2Q-24.270078125-28.03 -24.370078125-28.81L-24.370078125-28.81Q-24.460078125-30.86 -24.320078125000002-32.96Q-24.170078125-35.06 -24.070078125000002-37.3L-24.070078125000002-37.3Q-24.070078125000002-37.79 -24.070078125000002-38.33Q-24.070078125000002-38.87 -23.970078125-39.36L-23.970078125-39.36Q-23.880078125-39.84 -23.830078125-40.28Q-23.780078125-40.72 -23.780078125-41.21L-23.780078125-41.21Q-23.680078125-41.6 -23.880078125-42.58L-23.880078125-42.58Q-23.680078125-43.36 -23.780078125-43.55Q-23.880078125-43.75 -23.880078125-44.04L-23.880078125-44.04Q-23.880078125-45.12 -23.970078125-46.44Q-24.070078125000002-47.75 -24.070078125000002-49.12L-24.070078125000002-49.12Q-24.170078125-50 -24.070078125000002-51.42Q-23.970078125-52.83 -24.070078125000002-54.1L-24.070078125000002-54.1Q-24.170078125-54.59 -24.270078125-55.22Q-24.370078125-55.86 -24.460078125-56.64L-24.460078125-56.64Q-24.560078125-57.52 -24.510078125-58.15Q-24.460078125-58.79 -24.660078125-59.18L-24.660078125-59.18Q-24.850078125-59.47 -25.290078125-59.72Q-25.730078125-59.96 -26.220078125-60.25L-26.220078125-60.25Q-27.490078125-61.23 -29.590078124999998-61.96Q-31.690078125-62.7-32.860078125-63.77L-32.860078125-63.77Q-33.150078125-63.87-33.400078125-64.06Q-33.640078125-64.26-33.540078125-64.84L-33.540078125-64.84Q-33.250078125-65.14-32.280078125-64.94L-32.280078125-64.94Q-31.590078125-64.45 -31.350078125-64.55Q-31.100078125-64.65 -30.810078125-64.45L-30.810078125-64.45Q-30.320078125-64.36 -29.740078125-64.26Q-29.150078125-64.16 -28.660078125-64.06L-28.660078125-64.06Q-28.270078125-64.06 -27.930078125-64.16Q-27.590078124999998-64.26 -27.200078125-64.26L-27.200078125-64.26Q-26.810078125-64.26 -26.560078125-64.16Q-26.320078125000002-64.06 -25.930078125-64.06L-25.930078125-64.06Q-24.760078125-64.16 -23.490078125-64.4Q-22.220078125-64.65 -20.650078125-64.45L-20.650078125-64.45Q-20.170078125-64.36 -19.730078125-64.21Q-19.290078125-64.06 -18.800078125-63.96L-18.800078125-63.96Q-18.120078125-63.87 -17.530078125-63.96Q-16.940078125-64.06 -16.450078124999997-63.77ZM 0.4389843750000004-61.91L 0.4389843750000004-61.91Q 0.7289843749999996-62.11  1.4189843750000009-61.96Q 2.0989843750000006-61.82  2.588984375000001-61.72L 2.588984375000001-61.72Q 3.168984375000001-61.52  3.8089843749999996-61.47Q 4.438984375-61.43  4.928984375000001-61.23L 4.928984375000001-61.23Q 5.318984374999999-61.04  5.808984375000001-60.35L 5.808984375000001-60.35Q 6.008984375000001-60.16  6.248984374999999-59.96Q 6.498984374999999-59.77  6.588984374999999-59.57L 6.588984374999999-59.57Q 6.978984375-58.59  7.228984375-58.11Q 7.468984375000002-57.62  7.568984374999999-57.13L 7.568984374999999-57.13Q 6.978984375-55.37  6.398984375000001-54.98L 6.398984375000001-54.98Q 5.418984375000001-54.1  5.078984374999999-53.52Q 4.738984374999999-52.93  3.958984375-52.73L 3.958984375-52.73Q 3.6589843749999993-52.64  2.878984375-52.64L 2.878984375-52.64Q 1.8089843749999996-52.34  1.5089843750000007-52.39Q 1.2189843749999998-52.44  0.9289843750000006-52.34L 0.9289843750000006-52.34Q-0.541015625-52.25 -1.0710156249999994-52.59Q-1.6110156250000003-52.93 -2.1010156250000005-53.13L-2.1010156250000005-53.13Q-2.3910156249999996-53.71 -2.6410156249999996-54.35Q-2.881015625-54.98 -3.081015625-55.76L-3.081015625-55.76Q-3.171015625-56.35 -3.171015625-56.64Q-3.171015625-56.93 -3.171015625-57.62L-3.171015625-57.62Q-2.9810156250000004-58.89 -2.4410156250000004-59.38Q-1.9010156249999994-59.86 -1.6110156250000003-60.35L-1.6110156250000003-60.35Q-1.0210156250000004-61.04 -0.9810156249999995-61.13Q-0.9310156250000006-61.23 -0.7310156249999995-61.33L-0.7310156249999995-61.33Q-0.541015625-61.52 -0.15101562499999943-61.62Q 0.24898437499999915-61.72  0.4389843750000004-61.91ZM 6.688984375-46.88L 6.688984375-46.88Q 6.788984374999998-46.39  6.638984375-46.09Q 6.498984374999999-45.8  6.498984374999999-45.31L 6.498984374999999-45.31Q 6.498984374999999-44.63  6.638984375-43.95Q 6.788984374999998-43.26  6.688984375-42.58L 6.688984375-42.58Q 6.688984375-42.09  6.638984375-41.65Q 6.588984374999999-41.21  6.498984374999999-40.72L 6.498984374999999-40.72Q 6.298984375-38.87  6.248984374999999-36.57Q 6.198984374999998-34.28  6.008984375000001-32.13L 6.008984375000001-32.13Q 5.908984374999999-31.05  5.708984375-30.03Q 5.518984374999999-29  5.418984375000001-27.93L 5.418984375000001-27.93Q 5.418984375000001-26.86  5.518984374999999-25.98Q 5.618984375-25.1  5.618984375-24.12L 5.618984375-24.12Q 5.518984374999999-23.44  5.468984375000002-22.71Q 5.418984375000001-21.97  5.228984375-21.19L 5.228984375-21.19Q 5.028984375-20.12  5.128984375-18.75Q 5.228984375-17.38  5.318984374999999-16.21L 5.318984374999999-16.21Q 5.418984375000001-15.04  5.518984374999999-13.87Q 5.618984375-12.7  5.808984375000001-11.62L 5.808984375000001-11.62Q 6.008984375000001-10.94  6.348984375000001-10.25Q 6.688984375-9.57  6.978984375-8.98L 6.978984375-8.98Q 7.368984375-7.91  7.468984375000002-7.86Q 7.568984374999999-7.81  7.668984375000001-7.71L 7.668984375000001-7.71Q 8.058984375000001-6.93  8.448984374999998-6.54L 8.448984374999998-6.54Q 8.638984375-6.25  8.888984375-5.96Q 9.128984375000002-5.66  9.328984375000001-5.47L 9.328984375000001-5.47Q 9.618984375-4.98  10.108984374999999-4.69Q 10.598984375-4.39  11.088984374999999-3.91L 11.088984374999999-3.91Q 11.868984375-3.03  12.108984374999999-2.88Q 12.348984375-2.73  12.258984375-2.44L 12.258984375-2.44Q 11.768984374999999-2.34  11.378984375000002-2.29Q 10.988984375000001-2.25  10.498984375-2.15L 10.498984375-2.15Q 9.618984375-1.95  9.228984375-1.76L 9.228984375-1.76Q 8.548984375-1.66  7.858984374999999-1.66Q 7.178984374999999-1.66  6.398984375000001-1.56L 6.398984375000001-1.56Q 5.518984374999999-1.27  5.468984375000002-1.37Q 5.418984375000001-1.46  5.228984375-1.46L 5.228984375-1.46Q 3.8589843750000004-1.17  2.7789843750000003-0.98Q 1.708984375-0.78  0.7289843749999996-0.59L 0.7289843749999996-0.59Q-0.15101562499999943-0.39 -0.8810156249999999-0.29Q-1.6110156250000003-0.2 -2.3910156249999996 0L-2.3910156249999996 0Q-2.5910156250000007 0.1 -2.881015625 0.24Q-3.171015625 0.39 -3.371015625 0.49L-3.371015625 0.49Q-4.051015625 0.68 -4.691015625 0.59Q-5.321015625 0.49 -6.001015625 0.68L-6.001015625 0.68Q-5.421015625-0.49 -5.221015625-0.68Q-5.031015625-0.88 -4.831015625-1.07L-4.831015625-1.07Q-4.251015625-2.05 -3.911015625-2.44Q-3.5610156249999996-2.83 -3.171015625-3.03L-3.171015625-3.03Q-3.081015625-3.81 -2.3910156249999996-4.49L-2.3910156249999996-4.49Q-2.001015625000001-4.98 -1.6610156249999992-5.66Q-1.3210156249999994-6.35 -1.0210156250000004-7.03L-1.0210156250000004-7.03Q-0.44101562500000036-8.11 -0.291015625-8.79Q-0.15101562499999943-9.47 -0.15101562499999943-10.16L-0.15101562499999943-10.16Q-0.05101562499999979-10.94 -0.15101562499999943-11.67Q-0.2410156249999993-12.4 -0.2410156249999993-13.18L-0.2410156249999993-13.18Q-0.15101562499999943-13.77 -0.05101562499999979-14.4Q 0.04898437499999986-15.04  0.1489843749999995-15.63L 0.1489843749999995-15.63Q 0.24898437499999915-16.41  0.24898437499999915-17.19Q 0.24898437499999915-17.97  0.24898437499999915-18.65L 0.24898437499999915-18.65Q 0.24898437499999915-19.14  0.1489843749999995-19.48Q 0.04898437499999986-19.82  0.04898437499999986-20.31L 0.04898437499999986-20.31Q 0.04898437499999986-21.39 -0.15101562499999943-21.88Q-0.3410156250000007-22.36 -0.9310156250000006-22.56L-0.9310156250000006-22.56Q-1.4110156249999992-23.73 -1.4110156249999992-24.02Q-1.4110156249999992-24.32 -1.121015625-24.8L-1.121015625-24.8Q-0.3410156250000007-26.07 -0.05101562499999979-26.37Q 0.24898437499999915-26.66  0.4389843750000004-27.15L 0.4389843750000004-27.15Q 0.4389843750000004-27.83  0.5389843750000001-28.42Q 0.6389843749999997-29  0.8289843749999992-29.59L 0.8289843749999992-29.59L 0.9289843750000006-30.76Q 0.9289843750000006-31.25  0.9789843749999996-31.69Q 1.0289843750000003-32.13  1.0289843750000003-32.62L 1.0289843750000003-32.62Q 1.0289843750000003-33.11  1.0789843749999992-33.64Q 1.1189843750000001-34.18  1.0289843750000003-34.77L 1.0289843750000003-34.77Q 0.9289843750000006-35.06  0.7789843750000003-35.45Q 0.6389843749999997-35.84  0.4389843750000004-36.23L 0.4389843750000004-36.23Q 0.1489843749999995-37.7 -0.6310156249999999-38.48L-0.6310156249999999-38.48Q-1.5110156250000006-39.55 -2.781015625-40.53L-2.781015625-40.53Q-3.081015625-40.72 -3.421015625-40.92Q-3.7610156249999998-41.11 -4.051015625-41.31L-4.051015625-41.31Q-4.541015625-41.5 -4.831015625-41.75Q-5.131015625-41.99 -5.321015625-42.09L-5.321015625-42.09Q-5.711015625-42.29 -6.051015625-42.24Q-6.401015625-42.19 -6.791015625-42.38L-6.791015625-42.38Q-7.961015625-42.87 -8.251015625-42.92Q-8.541015625-42.97 -8.641015625-43.26L-8.641015625-43.26Q-9.131015625-43.26 -9.521015625-43.51Q-9.911015625-43.75 -10.301015625-44.04L-10.301015625-44.04Q-11.471015625-44.73-11.281015625-45.31L-11.281015625-45.31Q-11.081015625-45.9 -9.811015625-45.8Q-8.541015625-45.7 -7.661015625-45.9L-7.661015625-45.9Q-6.791015625-46.09 -6.741015625-46.04Q-6.691015625-46 -6.591015625-46L-6.591015625-46Q-6.001015625-46 -5.861015625-46.04Q-5.711015625-46.09 -5.521015625-46.09L-5.521015625-46.09Q-5.221015625-46.09 -4.881015625-46.19Q-4.541015625-46.29 -4.051015625-46.29L-4.051015625-46.29Q-3.5610156249999996-46.39 -3.2210156249999997-46.44Q-2.881015625-46.48 -2.5910156250000007-46.58L-2.5910156250000007-46.58Q-1.6110156250000003-46.48 -1.461015625-46.58Q-1.3210156249999994-46.68 -1.121015625-46.68L-1.121015625-46.68Q-0.05101562499999979-46.58  0.5389843750000001-46.63Q 1.1189843750000001-46.68  1.6089843750000004-46.68L 1.6089843750000004-46.68Q 2.6889843750000004-46.68  3.998984374999999-46.83Q 5.318984374999999-46.97  6.688984375-46.88ZM 58.352421875-53.81L 58.352421875-53.81Q 59.132421875-53.81  58.982421875-53.32Q 58.842421875-52.83  58.842421875-52.54L 58.842421875-52.54Q 58.642421875-51.27  58.402421875-49.95Q 58.152421875-48.63  57.862421875-47.27L 57.862421875-47.27Q 57.472421875-45.8  57.372421875-45.17Q 57.272421875-44.53  57.182421875-43.95L 57.182421875-43.95Q 56.882421875-42.97  56.742421875-42.14Q 56.592421875-41.31  56.392421875-40.53L 56.392421875-40.53Q 55.912421875-38.48  55.322421875-36.57Q 54.732421875-34.67  54.052421875-32.71L 54.052421875-32.71L 53.562421875-31.64Q 53.462421875-30.66  53.322421875-30.32Q 53.172421875-29.98  52.982421875-29.59L 52.982421875-29.59Q 52.882421875-29.39  52.832421875-28.91Q 52.782421875-28.42  52.192421875-28.42L 52.192421875-28.42Q 51.802421875-28.71  51.802421875-29.1Q 51.802421875-29.49  51.612421875-29.98L 51.612421875-29.98Q 51.122421875-30.86  50.972421875-31.4Q 50.832421875-31.93  50.632421875-32.42L 50.632421875-32.42Q 50.442421875-33.2  50.192421875-33.98Q 49.952421875-34.77  49.562421875-35.64L 49.562421875-35.64Q 49.362421875-36.13  49.272421875-36.38Q 49.172421875-36.62  48.972421875-37.21L 48.972421875-37.21Q 48.782421875-38.09  48.632421875-38.33Q 48.482421875-38.57  48.392421875-38.87L 48.392421875-38.87Q 48.292421875-39.16  48.292421875-39.5Q 48.292421875-39.84  48.192421875-40.14L 48.192421875-40.14Q 48.092421875-40.43  48.002421875-40.72Q 47.902421875-41.02  47.902421875-41.31L 47.902421875-41.31Q 47.612421875-41.6  47.512421875-41.99Q 47.412421875-42.38  47.212421875-42.77L 47.212421875-42.77Q 46.732421875-43.55  46.432421875-43.9Q 46.142421875-44.24  45.942421875-44.73L 45.942421875-44.73Q 43.892421875-45.8  41.652421875-46.39L 41.652421875-46.39Q 40.962421875000004-46.58  40.382421875-46.68Q 39.792421875-46.78  38.912421875-46.68L 38.912421875-46.68Q 38.132421875-46.48  37.162421875-46.44Q 36.182421875-46.39  35.402421875-45.9L 35.402421875-45.9Q 34.712421875000004-45.41  34.622421875-45.41Q 34.522421875-45.41  34.322421875-45.31L 34.322421875-45.31Q 33.542421875-44.82  33.252421874999996-44.68Q 32.962421875000004-44.53  32.662421875-44.34L 32.662421875-44.34Q 32.472421874999995-44.14  32.222421874999995-43.95Q 31.982421875-43.75  31.692421875-43.55L 31.692421875-43.55Q 31.202421875-42.97  30.662421875-42.43Q 30.122421875-41.89  29.642421875-41.21L 29.642421875-41.21Q 29.442421875-40.92  29.152421875-40.58Q 28.862421875000003-40.23  28.662421875-39.84L 28.662421875-39.84Q 27.982421875-38.67  27.882421875-38.48L 27.882421875-38.48Q 27.292421875000002-37.4  27.192421875-37.11Q 27.102421874999997-36.82  26.902421875-36.43L 26.902421875-36.43Q 26.712421875-36.13  26.662421875-35.79Q 26.612421875000003-35.45  26.412421875-34.96L 26.412421875-34.96Q 25.632421875-33.4  25.342421875-32.32Q 25.052421875-31.25  24.662421875-30.08L 24.662421875-30.08Q 24.362421875000003-29.2  24.072421875-28.32Q 23.782421875-27.44  23.582421875-26.37L 23.582421875-26.37Q 23.392421875-24.12  23.582421875-21.88L 23.582421875-21.88Q 23.782421875-21.29  24.022421875-20.65Q 24.272421875-20.02  24.462421875-19.34L 24.462421875-19.34Q 24.662421875-18.65  24.752421875-17.97Q 24.852421874999997-17.29  25.052421875-16.6L 25.052421875-16.6Q 25.342421875-15.82  25.342421875-15.33L 25.342421875-15.33Q 25.832421875-14.65  25.782421875-14.5Q 25.732421875-14.36  25.832421875-14.16L 25.832421875-14.16Q 26.412421875-13.18  26.562421875-12.6Q 26.712421875-12.01  27.002421875-11.52L 27.002421875-11.52Q 27.292421875000002-11.04  27.882421875-10.35L 27.882421875-10.35Q 28.072421875-10.16  28.172421874999998-9.86Q 28.272421875-9.57  28.462421875-9.38L 28.462421875-9.38Q 28.662421875-9.08  28.902421875-8.84Q 29.152421875-8.59  29.342421875-8.3L 29.342421875-8.3Q 29.542421875-8.11  29.592421875-7.86Q 29.642421875-7.62  29.832421875-7.32L 29.832421875-7.32Q 30.222421875-6.93  30.472421875-6.64Q 30.712421875-6.35  31.002421875-6.05L 31.002421875-6.05Q 31.392421875-5.76  31.782421875-5.52Q 32.182421875-5.27  32.962421875000004-5.08L 32.962421875000004-5.08L 34.232421875-4.69Q 34.712421875000004-4.59  35.402421875-4.64Q 36.082421875-4.69  36.862421874999995-4.59L 36.862421874999995-4.59Q 37.552421875-4.49  38.132421875-4.44Q 38.722421874999995-4.39  39.402421875-4.39L 39.402421875-4.39Q 40.182421875-4.39  40.772421875-4.39Q 41.362421874999995-4.39  42.042421875-4.49L 42.042421875-4.49Q 42.722421874999995-4.59  43.362421874999995-4.54Q 43.992421875000005-4.49  44.582421875-4.59L 44.582421875-4.59Q 45.552421875-4.98  45.852421875-4.93Q 46.142421875-4.88  46.532421875-5.08L 46.532421875-5.08Q 46.922421875-5.27  47.172421875-5.37Q 47.412421875-5.47  47.802421875-5.66L 47.802421875-5.66Q 48.192421875-5.86  48.532421875-6.01Q 48.872421875-6.15  49.272421875-6.45L 49.272421875-6.45Q 49.952421875-7.03  50.442421875-7.81Q 50.932421875-8.59  51.612421875-9.08L 51.612421875-9.08Q 51.802421875-9.77  52.192421875-10.35Q 52.592421875-10.94  52.982421875-11.43L 52.982421875-11.43Q 53.272421875-12.21  53.462421875-12.4L 53.462421875-12.4Q 53.662421875-12.6  53.902421875-12.99Q 54.152421875-13.38  54.152421875-13.77L 54.152421875-13.77Q 54.732421875-13.87  54.782421875-14.4Q 54.832421875-14.94  55.322421875-15.14L 55.322421875-15.14Q 55.812421875-15.14  55.952421875-14.75Q 56.102421875-14.36  56.302421875-14.06L 56.302421875-14.06Q 56.882421875-13.28  56.882421875-12.79L 56.882421875-12.79Q 56.882421875-12.4  56.692421875-11.87Q 56.492421875-11.33  56.302421875-10.94L 56.302421875-10.94Q 56.102421875-10.35  55.812421875-9.77L 55.812421875-9.77Q 55.422421875-9.08  55.372421875-8.84Q 55.322421875-8.59  55.122421875-8.4L 55.122421875-8.4Q 54.642421875-7.71  54.152421875-7.08Q 53.662421875-6.45  53.072421875-5.66L 53.072421875-5.66Q 52.392421875-4.79  51.902421875-4.59L 51.902421875-4.59Q 51.712421875-4.39  51.462421875-4.1Q 51.222421875-3.81  50.932421875-3.61L 50.932421875-3.61Q 48.972421875-2.64  47.612421875-2.34L 47.612421875-2.34Q 46.532421875-2.15  46.382421875-2.05Q 46.242421875-1.95  46.042421875-1.86L 46.042421875-1.86Q 45.652421875-1.76  45.262421875-1.71Q 44.872421875-1.66  44.382421875-1.56L 44.382421875-1.56Q 43.992421875000005-1.37  43.602421875000005-1.32Q 43.212421875000004-1.27  42.822421875-1.17L 42.822421875-1.17Q 41.752421874999996-0.98  40.432421875-1.07Q 39.112421874999995-1.17  37.552421875-0.98L 37.552421875-0.98Q 36.572421875-0.78  35.792421875-0.78Q 35.012421875-0.78  34.032421875-0.78L 34.032421875-0.78Q 32.662421875-0.98  31.742421875-1.12Q 30.812421875-1.27  29.732421875-1.66L 29.732421875-1.66Q 28.662421875-2.44  28.372421875-2.73L 28.372421875-2.73Q 28.172421874999998-2.93  27.882421875-2.98Q 27.592421875-3.03  27.392421875-3.22L 27.392421875-3.22Q 27.192421875-3.42  26.902421875-3.71Q 26.612421875000003-4  26.322421875-4.2L 26.322421875-4.2L 25.342421875-5.47Q 24.752421875-6.15  24.172421874999998-7.23L 24.172421874999998-7.23Q 23.292421875000002-8.4  23.242421874999998-8.74Q 23.192421875-9.08  23.002421875-9.47L 23.002421875-9.47Q 22.802421875-9.67  22.652421875-9.96Q 22.512421875-10.25  22.312421875-10.64L 22.312421875-10.64Q 22.122421875-10.94  22.022421875-11.28Q 21.922421874999998-11.62  21.732421875-11.91L 21.732421875-11.91Q 21.342421875-12.79  21.242421874999998-12.89L 21.242421874999998-12.89Q 20.752421875-14.06  20.552421875-14.45Q 20.362421875-14.84  20.162421875-15.33L 20.162421875-15.33Q 19.772421875-16.5  19.772421875-16.5L 19.772421875-16.5Q 19.582421875-17.29  19.382421875-17.68L 19.382421875-17.68Q 19.282421875-17.97  19.142421875-18.26Q 18.992421874999998-18.55  18.892421875-18.85L 18.892421875-18.85Q 18.802421875-19.24  18.802421875-19.53Q 18.802421875-19.82  18.702421875-20.21L 18.702421875-20.21Q 18.412421875-21  18.362421875-21.09Q 18.312421875-21.19  18.312421875-21.39L 18.312421875-21.39Q 18.212421875-21.68  18.062421875-21.92Q 17.922421875-22.17  17.822421875-22.46L 17.822421875-22.46Q 17.722421875000002-22.66  17.822421875-23Q 17.922421875-23.34  17.822421875-23.63L 17.822421875-23.63Q 17.332421875-25.59  17.092421875-26.86Q 16.842421875-28.13  16.752421875-29.3L 16.752421875-29.3Q 16.752421875-30.86  16.892421875-32.23Q 17.042421875-33.59  17.622421875-34.67L 17.622421875-34.67Q 18.212421875-36.13  18.362421875-36.67Q 18.502421875-37.21  18.702421875-37.7L 18.702421875-37.7Q 18.892421875-38.09  19.192421875-38.53Q 19.482421875-38.96  19.772421875-39.45L 19.772421875-39.45Q 20.942421875-41.6  21.972421875000002-42.68Q 23.002421875-43.75  23.872421875-45.21L 23.872421875-45.21Q 24.172421874999998-45.41  24.462421875-45.61Q 24.752421875-45.8  25.142421875-46L 25.142421875-46Q 26.322421875-46.88  26.662421875-47.12Q 27.002421875-47.36  27.392421875-47.56L 27.392421875-47.56Q 27.882421875-47.75  28.272421875-47.85Q 28.662421875-47.95  29.152421875-48.14L 29.152421875-48.14Q 29.542421875-48.34  29.882421875-48.49Q 30.222421875-48.63  30.612421875-48.73L 30.612421875-48.73Q 31.592421875-49.02  32.522421875-49.07Q 33.442421875-49.12  34.232421875-49.32L 34.232421875-49.32Q 34.712421875000004-49.51  35.302421875-49.8Q 35.892421875-50.1  36.572421875-50.2L 36.572421875-50.2Q 37.842421875-50.39  39.302421875-50.1Q 40.772421875-49.8  41.752421874999996-49.41L 41.752421874999996-49.41Q 42.722421874999995-49.12  43.992421875000005-48.54L 43.992421875000005-48.54Q 44.972421874999995-48.24  45.162421875-47.85L 45.162421875-47.85Q 46.042421875-47.36  46.242421875-47.22Q 46.432421875-47.07  46.632421875-46.88L 46.632421875-46.88Q 47.802421875-46.48  48.442421875-46.19Q 49.072421875-45.9  49.562421875-45.61L 49.562421875-45.61Q 50.532421875-44.92  50.732421875-44.87Q 50.932421875-44.82  51.122421875-44.73L 51.122421875-44.73Q 52.392421875-44.53  53.172421875-45.41Q 53.952421875-46.29  54.442421875-46.97L 54.442421875-46.97Q 54.642421875-47.36  54.882421875-47.8Q 55.122421875-48.24  55.322421875-48.63L 55.322421875-48.63Q 56.102421875-49.51  56.202421875-49.71Q 56.302421875-49.9  56.392421875-50.1L 56.392421875-50.1Q 56.882421875-51.37  57.272421875-51.56L 57.272421875-51.56Q 57.372421875-51.66  57.472421875-52.05Q 57.572421875-52.44  57.762421875-52.64L 57.762421875-52.64Q 57.962421875-53.42  58.352421875-53.81ZM 99.849765625-21.58L 99.849765625-21.58Q 99.069765625-21.58  98.439765625-21.73Q 97.79976562499999-21.88  97.01976562499999-22.07L 97.01976562499999-22.07Q 96.729765625-22.17  96.389765625-22.27Q 96.04976562499999-22.36  95.74976562500001-22.46L 95.74976562500001-22.46Q 94.96976562500001-22.66  94.289765625-22.66Q 93.599765625-22.66  92.819765625-22.75L 92.819765625-22.75Q 91.749765625-22.95  90.769765625-23Q 89.79976562499999-23.05  88.819765625-23.14L 88.819765625-23.14Q 85.989765625-23.24  83.199765625-23.05Q 80.419765625-22.85  77.589765625-23.05L 77.589765625-23.05Q 77.199765625-23.05  76.859765625-23.1Q 76.509765625-23.14  76.119765625-23.14L 76.119765625-23.14Q 74.949765625-22.75  74.609765625-22.8Q 74.269765625-22.85  74.069765625-22.75L 74.069765625-22.75Q 73.579765625-22.66  73.139765625-22.56Q 72.709765625-22.46  72.309765625-22.36L 72.309765625-22.36Q 72.21976562500001-21.78  72.409765625-21.24Q 72.609765625-20.7  72.709765625-20.21L 72.709765625-20.21Q 72.999765625-19.04  73.239765625-18.07Q 73.489765625-17.09  73.96976562500001-16.02L 73.96976562500001-16.02Q 74.369765625-14.94  74.559765625-14.6Q 74.759765625-14.26  74.659765625-14.06L 74.659765625-14.06Q 75.04976562499999-13.48  75.199765625-12.84Q 75.339765625-12.21  75.539765625-11.72L 75.539765625-11.72Q 76.029765625-11.04  75.979765625-10.89Q 75.929765625-10.74  76.029765625-10.64L 76.029765625-10.64Q 76.509765625-9.96  76.509765625-9.86Q 76.509765625-9.77  76.609765625-9.67L 76.609765625-9.67Q 76.809765625-9.47  76.999765625-9.28Q 77.199765625-9.08  77.389765625-8.89L 77.389765625-8.89Q 77.779765625-8.3  78.079765625-8.01L 78.079765625-8.01Q 78.659765625-7.52  78.809765625-7.32Q 78.959765625-7.13  79.149765625-6.93L 79.149765625-6.93Q 79.739765625-6.15  79.829765625-6.25Q 79.929765625-6.35  80.029765625-6.15L 80.029765625-6.15Q 80.809765625-5.47  81.489765625-5.27Q 82.179765625-5.08  82.669765625-4.98L 82.669765625-4.98Q 83.839765625-4.79  85.109765625-4.98L 85.109765625-4.98Q 85.889765625-4.98  86.619765625-4.98Q 87.349765625-4.98  87.939765625-5.08L 87.939765625-5.08Q 88.429765625-5.18  88.819765625-5.32Q 89.209765625-5.47  89.599765625-5.66L 89.599765625-5.66Q 89.989765625-5.86  90.279765625-5.91Q 90.579765625-5.96  90.769765625-6.15L 90.769765625-6.15Q 91.259765625-6.45  91.749765625-6.69Q 92.23976562499999-6.93  92.71976562500001-7.23L 92.71976562500001-7.23Q 93.699765625-7.62  94.089765625-7.91L 94.089765625-7.91Q 94.289765625-8.11  94.579765625-8.25Q 94.869765625-8.4  95.069765625-8.59L 95.069765625-8.59Q 96.139765625-9.57  96.679765625-9.91Q 97.21976562500001-10.25  97.709765625-10.84L 97.709765625-10.84Q 98.289765625-11.72  98.539765625-11.91Q 98.77976562500001-12.11  98.96976562500001-12.3L 98.96976562500001-12.3Q 99.659765625-12.79  99.79976562499999-12.94Q 99.949765625-13.09  100.149765625-13.18L 100.149765625-13.18L 101.319765625-14.16Q 101.609765625-13.87  101.809765625-12.79Q 101.99976562500001-11.72  101.809765625-10.94L 101.809765625-10.94Q 101.609765625-10.35  100.729765625-9.57Q 99.849765625-8.79  99.069765625-8.3L 99.069765625-8.3Q 97.99976562500001-7.42  97.709765625-7.08Q 97.409765625-6.74  96.919765625-6.45L 96.919765625-6.45Q 95.649765625-5.66  95.309765625-5.32Q 94.96976562500001-4.98  94.579765625-4.69L 94.579765625-4.69Q 94.189765625-4.39  93.849765625-4.15Q 93.509765625-3.91  93.01976562499999-3.61L 93.01976562499999-3.61Q 92.629765625-3.42  92.23976562499999-3.17Q 91.849765625-2.93  91.359765625-2.73L 91.359765625-2.73Q 89.989765625-2.15  89.649765625-1.95Q 89.309765625-1.76  88.819765625-1.56L 88.819765625-1.56Q 87.54976562499999-1.17  86.079765625-1.07L 86.079765625-1.07Q 85.109765625-0.88  84.229765625-0.68Q 83.349765625-0.49  82.569765625-0.49L 82.569765625-0.49Q 81.489765625-0.39  80.21976562500001-0.63Q 78.959765625-0.88  77.979765625-1.17L 77.979765625-1.17Q 77.589765625-1.37  77.249765625-1.37Q 76.899765625-1.37  76.609765625-1.56L 76.609765625-1.56Q 76.21976562500001-1.76  75.929765625-2.1Q 75.639765625-2.44  75.239765625-2.44L 75.239765625-2.44Q 74.949765625-3.03  74.409765625-3.42Q 73.879765625-3.81  73.679765625-4.49L 73.679765625-4.49Q 73.389765625-4.69  72.999765625-4.88Q 72.609765625-5.08  72.309765625-5.47L 72.309765625-5.47Q 71.919765625-6.05  71.439765625-6.49Q 70.949765625-6.93  70.749765625-7.32L 70.749765625-7.32Q 70.169765625-8.3  70.069765625-8.5Q 69.96976562500001-8.69  69.779765625-8.89L 69.779765625-8.89Q 69.289765625-9.67  69.139765625-9.67Q 68.989765625-9.67  68.989765625-9.77L 68.989765625-9.77Q 68.599765625-10.55  68.309765625-10.84Q 68.019765625-11.13  67.819765625-11.43L 67.819765625-11.43Q 67.139765625-12.3  66.989765625-12.4Q 66.849765625-12.5  66.749765625-12.6L 66.749765625-12.6Q 66.459765625-13.57  66.359765625-13.67L 66.359765625-13.67Q 66.159765625-13.96  66.059765625-14.21Q 65.969765625-14.45  65.769765625-14.75L 65.769765625-14.75Q 65.579765625-15.14  65.479765625-15.48Q 65.379765625-15.82  65.189765625-16.31L 65.189765625-16.31Q 64.889765625-17.09  64.649765625-18.21Q 64.399765625-19.34  64.209765625-20.41L 64.209765625-20.41Q 64.109765625-21.09  64.059765625-21.92Q 64.009765625-22.75  63.919765625-23.73L 63.919765625-23.73Q 63.819765625-24.22  63.669765625-24.66Q 63.529765625-25.1  63.529765625-25.59L 63.529765625-25.59Q 63.529765625-26.17  63.619765625-26.9Q 63.719765625-27.64  63.819765625-28.42L 63.819765625-28.42Q 63.919765625-29.3  63.869765625-30.13Q 63.819765625-30.96  64.009765625-31.74L 64.009765625-31.74Q 64.209765625-32.52  64.549765625-33.3Q 64.889765625-34.08  64.799765625-34.96L 64.799765625-34.96Q 65.479765625-36.33  65.869765625-36.62Q 66.259765625-36.91  66.459765625-37.3L 66.459765625-37.3Q 66.649765625-37.79  66.649765625-38.18Q 66.649765625-38.57  66.849765625-39.06L 66.849765625-39.06Q 67.429765625-40.04  67.479765625-40.28Q 67.529765625-40.53  67.629765625-40.72L 67.629765625-40.72Q 67.819765625-40.92  68.159765625-41.16Q 68.509765625-41.41  68.699765625-41.7L 68.699765625-41.7Q 68.989765625-41.99  69.579765625-42.77L 69.579765625-42.77Q 70.259765625-43.36  70.359765625-43.55Q 70.459765625-43.75  70.649765625-43.95L 70.649765625-43.95Q 70.949765625-44.24  71.239765625-44.58Q 71.529765625-44.92  71.919765625-45.12L 71.919765625-45.12Q 72.21976562500001-45.31  72.559765625-45.51Q 72.899765625-45.7  73.099765625-45.7L 73.099765625-45.7Q 73.289765625-46  73.539765625-46.24Q 73.779765625-46.48  73.96976562500001-46.68L 73.96976562500001-46.68Q 74.169765625-46.88  74.459765625-47.07Q 74.759765625-47.27  74.849765625-47.56L 74.849765625-47.56Q 75.639765625-47.75  76.169765625-48.39Q 76.709765625-49.02  77.489765625-49.32L 77.489765625-49.32Q 78.169765625-49.61  78.909765625-49.71Q 79.639765625-49.8  80.21976562500001-50.29L 80.21976562500001-50.29Q 80.709765625-50.29  81.249765625-50.49Q 81.789765625-50.68  82.279765625-50.88L 82.279765625-50.88Q 83.059765625-51.07  84.179765625-51.27Q 85.29976562499999-51.46  86.379765625-51.46L 86.379765625-51.46Q 88.619765625-51.56  89.889765625-50.98L 89.889765625-50.98Q 91.259765625-50.49  91.649765625-50.54Q 92.039765625-50.59  92.329765625-50.39L 92.329765625-50.39Q 93.01976562499999-50.1  93.309765625-49.8L 93.309765625-49.8Q 93.599765625-49.51  94.579765625-49.12L 94.579765625-49.12Q 94.869765625-48.93  95.069765625-48.83Q 95.259765625-48.73  95.649765625-48.54L 95.649765625-48.54Q 95.949765625-48.34  96.289765625-47.9Q 96.629765625-47.46  96.919765625-47.27L 96.919765625-47.27Q 97.609765625-46.78  97.659765625-46.68Q 97.709765625-46.58  97.899765625-46.39L 97.899765625-46.39Q 98.96976562500001-45.12  99.409765625-44.19Q 99.849765625-43.26  100.339765625-42.29L 100.339765625-42.29Q 100.539765625-41.99  100.48976562499999-41.85Q 100.439765625-41.7  100.639765625-41.21L 100.639765625-41.21Q 101.119765625-39.65  101.26976562499999-38.38Q 101.419765625-37.11  101.509765625-36.04L 101.509765625-36.04Q 101.709765625-34.96  101.809765625-34.13Q 101.899765625-33.3  101.809765625-32.23L 101.809765625-32.23Q 101.709765625-31.64  101.609765625-31.01Q 101.509765625-30.37  101.419765625-29.88L 101.419765625-29.88Q 101.419765625-29.49  101.46976562500001-29.15Q 101.509765625-28.81  101.419765625-28.42L 101.419765625-28.42Q 101.319765625-27.83  101.169765625-27.1Q 101.02976562500001-26.37  100.829765625-25.78L 100.829765625-25.78Q 100.639765625-24.71  100.439765625-23.63Q 100.23976562499999-22.56  99.849765625-21.58ZM 93.209765625-27.15L 93.409765625-28.13Q 93.899765625-29.49  93.899765625-30.08Q 93.899765625-30.66  93.98976562499999-31.15L 93.98976562499999-31.15Q 94.089765625-31.54  94.139765625-31.79Q 94.189765625-32.03  94.189765625-32.23L 94.189765625-32.23Q 94.289765625-32.52  94.23976562499999-32.81Q 94.189765625-33.11  94.189765625-33.5L 94.189765625-33.5Q 94.289765625-33.98  94.389765625-34.57Q 94.479765625-35.16  94.479765625-35.74L 94.479765625-35.74Q 94.579765625-38.09  94.579765625-40.48Q 94.579765625-42.87  94.389765625-45.12L 94.389765625-45.12Q 94.089765625-45.51  93.699765625-45.9Q 93.309765625-46.29  92.819765625-46.48L 92.819765625-46.48Q 92.23976562499999-46.97  91.939765625-47.27L 91.939765625-47.27Q 90.869765625-47.66  90.669765625-47.66L 90.669765625-47.66Q 89.399765625-48.44  87.839765625-48.44L 87.839765625-48.44Q 86.379765625-48.44  85.639765625-48.24Q 84.909765625-48.05  84.229765625-47.85L 84.229765625-47.85Q 83.449765625-47.66  83.009765625-47.56Q 82.569765625-47.46  82.179765625-47.27L 82.179765625-47.27Q 81.099765625-46.68  80.859765625-46.39Q 80.619765625-46.09  80.319765625-45.9L 80.319765625-45.9Q 79.829765625-45.51  79.439765625-45.17Q 79.04976562499999-44.82  78.559765625-44.53L 78.559765625-44.53Q 77.779765625-43.55  77.539765625-43.21Q 77.29976562499999-42.87  77.099765625-42.58L 77.099765625-42.58Q 76.609765625-41.6  76.609765625-41.6L 76.609765625-41.6Q 76.21976562500001-40.92  76.21976562500001-40.77Q 76.21976562500001-40.63  76.119765625-40.53L 76.119765625-40.53Q 75.729765625-39.84  75.729765625-39.65Q 75.729765625-39.45  75.729765625-39.36L 75.729765625-39.36L 75.149765625-37.7Q 74.659765625-36.43  74.609765625-36.13Q 74.559765625-35.84  74.369765625-35.64L 74.369765625-35.64Q 73.96976562500001-34.86  73.929765625-34.72Q 73.879765625-34.57  73.779765625-34.38L 73.779765625-34.38Q 73.389765625-33.59  73.189765625-33.2L 73.189765625-33.2Q 72.999765625-32.71  72.849765625-32.18Q 72.709765625-31.64  72.609765625-31.05L 72.609765625-31.05Q 72.509765625-30.37  72.359765625-30.08Q 72.21976562500001-29.79  72.019765625-29.3L 72.019765625-29.3Q 71.439765625-27.54  71.529765625-25.59L 71.529765625-25.59Q 72.019765625-25.39  72.609765625-25.44Q 73.189765625-25.49  73.679765625-25.49L 73.679765625-25.49Q 74.269765625-25.39  74.409765625-25.44Q 74.559765625-25.49  74.759765625-25.49L 74.759765625-25.49Q 75.04976562499999-25.49  75.339765625-25.44Q 75.639765625-25.39  75.929765625-25.39L 75.929765625-25.39Q 76.21976562500001-25.39  76.509765625-25.49Q 76.809765625-25.59  77.099765625-25.59L 77.099765625-25.59Q 77.489765625-25.68  77.829765625-25.68Q 78.169765625-25.68  78.559765625-25.78L 78.559765625-25.78Q 80.029765625-25.88  81.29976562499999-26.03Q 82.569765625-26.17  84.029765625-26.37L 84.029765625-26.37Q 84.71976562500001-26.37  85.349765625-26.46Q 85.989765625-26.56  86.669765625-26.56L 86.669765625-26.56L 89.109765625-26.56Q 90.669765625-26.66  91.54976562499999-26.76Q 92.429765625-26.86  93.209765625-27.15L 93.209765625-27.15Z"/>
  </svg>